name rise49.8558peak67.6521fall70.3087.mot
datacolumns 19
datarows 24
range 5.76331300000000 5.80164400000000
endheader
time	ground_force1_vx	ground_force1_vy	ground_force1_vz	ground_force1_px	ground_force1_py	ground_force1_pz	ground_force2_vx	ground_force2_vy	ground_force2_vz	ground_force2_px	ground_force2_py	ground_force2_pz	ground_torque1_x	ground_torque1_y	ground_torque1_z	ground_torque2_x	ground_torque2_y	ground_torque2_z	
5.76331300000000	56.49183400000000	736.73077599999999	62.54939700000000	0.35552100000000	0.00000000000000	0.11982600000000	0.00000000000000	0.00000000000000	0.00000000000000	0.00000000000000	0.00000000000000	0.00000000000000	0.00000000000000	30.17434100000000	0.00000000000000	0.00000000000000	0.00000000000000	0.00000000000000	
5.76497900000000	55.73974900000000	738.59117400000002	62.59909800000000	0.35420900000000	0.00000000000000	0.11987500000000	0.00000000000000	0.00000000000000	0.00000000000000	0.00000000000000	0.00000000000000	0.00000000000000	0.00000000000000	30.19937800000000	0.00000000000000	0.00000000000000	0.00000000000000	0.00000000000000	
5.76664400000000	54.99852300000000	740.39577599999996	62.64609600000000	0.35292700000000	0.00000000000000	0.11992200000000	0.00000000000000	0.00000000000000	0.00000000000000	0.00000000000000	0.00000000000000	0.00000000000000	0.00000000000000	30.22229300000000	0.00000000000000	0.00000000000000	0.00000000000000	0.00000000000000	
5.76831100000000	54.26844300000000	742.14299100000005	62.69022500000000	0.35167600000000	0.00000000000000	0.11996800000000	0.00000000000000	0.00000000000000	0.00000000000000	0.00000000000000	0.00000000000000	0.00000000000000	0.00000000000000	30.24299600000000	0.00000000000000	0.00000000000000	0.00000000000000	0.00000000000000	
5.76998100000000	53.54971900000000	743.83122800000001	62.73127300000000	0.35045500000000	0.00000000000000	0.12001200000000	0.00000000000000	0.00000000000000	0.00000000000000	0.00000000000000	0.00000000000000	0.00000000000000	0.00000000000000	30.26137200000000	0.00000000000000	0.00000000000000	0.00000000000000	0.00000000000000	
5.77164900000000	52.84248300000000	745.45890999999995	62.76898800000000	0.34926600000000	0.00000000000000	0.12005500000000	0.00000000000000	0.00000000000000	0.00000000000000	0.00000000000000	0.00000000000000	0.00000000000000	0.00000000000000	30.27727700000000	0.00000000000000	0.00000000000000	0.00000000000000	0.00000000000000	
5.77331500000000	52.14679700000000	747.02448900000002	62.80307500000000	0.34810700000000	0.00000000000000	0.12009600000000	0.00000000000000	0.00000000000000	0.00000000000000	0.00000000000000	0.00000000000000	0.00000000000000	0.00000000000000	30.29054700000000	0.00000000000000	0.00000000000000	0.00000000000000	0.00000000000000	
5.77498100000000	51.46265700000000	748.52646100000004	62.83321000000000	0.34697800000000	0.00000000000000	0.12013600000000	0.00000000000000	0.00000000000000	0.00000000000000	0.00000000000000	0.00000000000000	0.00000000000000	0.00000000000000	30.30099700000000	0.00000000000000	0.00000000000000	0.00000000000000	0.00000000000000	
5.77664700000000	50.78999200000000	749.96338000000003	62.85903900000000	0.34587800000000	0.00000000000000	0.12017400000000	0.00000000000000	0.00000000000000	0.00000000000000	0.00000000000000	0.00000000000000	0.00000000000000	0.00000000000000	30.30842500000000	0.00000000000000	0.00000000000000	0.00000000000000	0.00000000000000	
5.77831300000000	50.12867500000000	751.33387000000005	62.88018600000000	0.34480800000000	0.00000000000000	0.12021100000000	0.00000000000000	0.00000000000000	0.00000000000000	0.00000000000000	0.00000000000000	0.00000000000000	0.00000000000000	30.31261700000000	0.00000000000000	0.00000000000000	0.00000000000000	0.00000000000000	
5.77998000000000	49.47852300000000	752.63663599999995	62.89625500000000	0.34376500000000	0.00000000000000	0.12024600000000	0.00000000000000	0.00000000000000	0.00000000000000	0.00000000000000	0.00000000000000	0.00000000000000	0.00000000000000	30.31334600000000	0.00000000000000	0.00000000000000	0.00000000000000	0.00000000000000	
5.78164000000000	48.83930200000000	753.87048100000004	62.90684000000000	0.34275000000000	0.00000000000000	0.12028000000000	0.00000000000000	0.00000000000000	0.00000000000000	0.00000000000000	0.00000000000000	0.00000000000000	0.00000000000000	30.31037900000000	0.00000000000000	0.00000000000000	0.00000000000000	0.00000000000000	
5.78330900000000	48.21073600000000	755.03431200000000	62.91152400000000	0.34176200000000	0.00000000000000	0.12031200000000	0.00000000000000	0.00000000000000	0.00000000000000	0.00000000000000	0.00000000000000	0.00000000000000	0.00000000000000	30.30347600000000	0.00000000000000	0.00000000000000	0.00000000000000	0.00000000000000	
5.78497400000000	47.59250300000000	756.12715100000003	62.90988700000000	0.34079800000000	0.00000000000000	0.12034200000000	0.00000000000000	0.00000000000000	0.00000000000000	0.00000000000000	0.00000000000000	0.00000000000000	0.00000000000000	30.29239600000000	0.00000000000000	0.00000000000000	0.00000000000000	0.00000000000000	
5.78664100000000	46.98425000000000	757.14814699999999	62.90151400000000	0.33985900000000	0.00000000000000	0.12037100000000	0.00000000000000	0.00000000000000	0.00000000000000	0.00000000000000	0.00000000000000	0.00000000000000	0.00000000000000	30.27690000000000	0.00000000000000	0.00000000000000	0.00000000000000	0.00000000000000	
5.78831400000000	46.38558800000000	758.09657900000002	62.88599200000000	0.33894200000000	0.00000000000000	0.12039900000000	0.00000000000000	0.00000000000000	0.00000000000000	0.00000000000000	0.00000000000000	0.00000000000000	0.00000000000000	30.25675000000000	0.00000000000000	0.00000000000000	0.00000000000000	0.00000000000000	
5.78998200000000	45.79610300000000	758.97186799999997	62.86292200000000	0.33804700000000	0.00000000000000	0.12042400000000	0.00000000000000	0.00000000000000	0.00000000000000	0.00000000000000	0.00000000000000	0.00000000000000	0.00000000000000	30.23171500000000	0.00000000000000	0.00000000000000	0.00000000000000	0.00000000000000	
5.79164700000000	45.21536000000000	759.77358300000003	62.83191900000000	0.33717100000000	0.00000000000000	0.12044900000000	0.00000000000000	0.00000000000000	0.00000000000000	0.00000000000000	0.00000000000000	0.00000000000000	0.00000000000000	30.20157300000000	0.00000000000000	0.00000000000000	0.00000000000000	0.00000000000000	
5.79330700000000	44.64290200000000	760.50144000000000	62.79261800000000	0.33631500000000	0.00000000000000	0.12047100000000	0.00000000000000	0.00000000000000	0.00000000000000	0.00000000000000	0.00000000000000	0.00000000000000	0.00000000000000	30.16611300000000	0.00000000000000	0.00000000000000	0.00000000000000	0.00000000000000	
5.79497400000000	44.07826300000000	761.15531499999997	62.74467800000000	0.33547500000000	0.00000000000000	0.12049300000000	0.00000000000000	0.00000000000000	0.00000000000000	0.00000000000000	0.00000000000000	0.00000000000000	0.00000000000000	30.12513700000000	0.00000000000000	0.00000000000000	0.00000000000000	0.00000000000000	
5.79664200000000	43.52096200000000	761.73524299999997	62.68778300000000	0.33465000000000	0.00000000000000	0.12051300000000	0.00000000000000	0.00000000000000	0.00000000000000	0.00000000000000	0.00000000000000	0.00000000000000	0.00000000000000	30.07846300000000	0.00000000000000	0.00000000000000	0.00000000000000	0.00000000000000	
5.79831100000000	42.97051700000000	762.24141699999996	62.62164800000000	0.33383900000000	0.00000000000000	0.12053100000000	0.00000000000000	0.00000000000000	0.00000000000000	0.00000000000000	0.00000000000000	0.00000000000000	0.00000000000000	30.02592500000000	0.00000000000000	0.00000000000000	0.00000000000000	0.00000000000000	
5.79997700000000	42.42644200000000	762.67419700000005	62.54602100000000	0.33304000000000	0.00000000000000	0.12054900000000	0.00000000000000	0.00000000000000	0.00000000000000	0.00000000000000	0.00000000000000	0.00000000000000	0.00000000000000	29.96737900000000	0.00000000000000	0.00000000000000	0.00000000000000	0.00000000000000	
5.80164400000000	41.88825400000000	763.03410299999996	62.46068700000000	0.33225100000000	0.00000000000000	0.12056500000000	0.00000000000000	0.00000000000000	0.00000000000000	0.00000000000000	0.00000000000000	0.00000000000000	0.00000000000000	29.90270000000000	0.00000000000000	0.00000000000000	0.00000000000000	0.00000000000000	
